<svg xmlns="http://www.w3.org/2000/svg" width="32" height="31.71" viewBox="0 0 32 31.71">
  <path id="github" d="M16.869.869a16.135,16.135,0,0,0-16,16.261,16.264,16.264,0,0,0,10.64,15.328l.168.06a.9.9,0,0,0,.286.05.945.945,0,0,0,.938-.953V28.707a6.285,6.285,0,0,1-3.4,0,4.085,4.085,0,0,1-2.162-2.558c-.651-1.635-2.152-2.087-2.211-2.367s1.589-.722,2.438.271,1.708,2.979,3.534,2.789a9.464,9.464,0,0,0,1.846-.351,3.5,3.5,0,0,1,.8-2c-4.294-.722-7.156-3.07-7.156-7.674a7.3,7.3,0,0,1,1.638-4.936c-.178-1-.474-3.331.316-4.143,0,0,1.115-.7,4.313,1.585A17.24,17.24,0,0,1,16.79,8.9h.158a18.308,18.308,0,0,1,3.928.421c3.2-2.287,4.313-1.585,4.313-1.585.79.823.494,3.15.316,4.143a7.332,7.332,0,0,1,1.638,4.936c0,4.6-2.852,6.952-7.156,7.674a4.311,4.311,0,0,1,.849,2.869v4.264a.945.945,0,0,0,.938.953.883.883,0,0,0,.227-.03.369.369,0,0,0,.1-.03A16.259,16.259,0,0,0,32.869,17.14,16.131,16.131,0,0,0,16.869.869Z" transform="translate(-0.869 -0.869)" fill="#fff"/>
</svg>
